<mxfile host="www.draw.io" modified="2019-10-24T01:41:12.487Z" agent="Mozilla/5.0 (Macintosh; Intel Mac OS X 10_14_4) AppleWebKit/537.36 (KHTML, like Gecko) Chrome/78.0.3904.70 Safari/537.36" etag="BLs3WXoLujvRqd1vT7fn" version="12.1.4" type="github" pages="1">
  <diagram id="ie2R15UFZY9MIA4SNEG5" name="Page-1">
    <mxGraphModel dx="1426" dy="770" grid="1" gridSize="10" guides="1" tooltips="1" connect="1" arrows="1" fold="1" page="1" pageScale="1" pageWidth="827" pageHeight="1169" math="0" shadow="0">
      <root>
        <mxCell id="0"/>
        <mxCell id="1" parent="0"/>
        <mxCell id="ynYYEtKkDQZEI9gL0nNr-7" value="" style="rounded=0;whiteSpace=wrap;html=1;" vertex="1" parent="1">
          <mxGeometry x="190" y="27" width="370" height="250" as="geometry"/>
        </mxCell>
        <mxCell id="6KgcbaHRgwuIXlcrBTEd-1" value="" style="rounded=0;whiteSpace=wrap;html=1;" parent="1" vertex="1">
          <mxGeometry x="140" y="330" width="470" height="580" as="geometry"/>
        </mxCell>
        <mxCell id="6KgcbaHRgwuIXlcrBTEd-2" value="第一章&lt;br&gt;基础平台" style="rounded=0;whiteSpace=wrap;html=1;fillColor=#d5e8d4;strokeColor=#82b366;" parent="1" vertex="1">
          <mxGeometry x="150" y="330" width="70" height="580" as="geometry"/>
        </mxCell>
        <mxCell id="6KgcbaHRgwuIXlcrBTEd-3" value="02 大厦基石: 无声有 有生万物" style="rounded=1;whiteSpace=wrap;html=1;fillColor=#fff2cc;strokeColor=#d6b656;" parent="1" vertex="1">
          <mxGeometry x="230" y="873" width="370" height="30" as="geometry"/>
        </mxCell>
        <mxCell id="6KgcbaHRgwuIXlcrBTEd-4" value="03 汇编：编程语言的诞生" style="rounded=1;whiteSpace=wrap;html=1;fillColor=#fff2cc;strokeColor=#d6b656;" parent="1" vertex="1">
          <mxGeometry x="230" y="838" width="170" height="30" as="geometry"/>
        </mxCell>
        <mxCell id="6KgcbaHRgwuIXlcrBTEd-5" value="04 编程语言的进化" style="rounded=1;whiteSpace=wrap;html=1;fillColor=#fff2cc;strokeColor=#d6b656;" parent="1" vertex="1">
          <mxGeometry x="417" y="838" width="182" height="30" as="geometry"/>
        </mxCell>
        <mxCell id="6KgcbaHRgwuIXlcrBTEd-6" value="05: 如何实现计算机的自我迭代" style="rounded=1;whiteSpace=wrap;html=1;arcSize=0;fillColor=#fff2cc;strokeColor=#d6b656;" parent="1" vertex="1">
          <mxGeometry x="230" y="803" width="370" height="30" as="geometry"/>
        </mxCell>
        <mxCell id="6KgcbaHRgwuIXlcrBTEd-7" value="06 &lt;br&gt;操作系统进场" style="rounded=0;whiteSpace=wrap;html=1;fillColor=#fad9d5;strokeColor=#ae4132;" parent="1" vertex="1">
          <mxGeometry x="230" y="440" width="60" height="350" as="geometry"/>
        </mxCell>
        <mxCell id="6KgcbaHRgwuIXlcrBTEd-8" value="07 软件运行机制及内存管理" style="rounded=1;whiteSpace=wrap;html=1;fillColor=#dae8fc;strokeColor=#6c8ebf;" parent="1" vertex="1">
          <mxGeometry x="295" y="765" width="305" height="30" as="geometry"/>
        </mxCell>
        <mxCell id="6KgcbaHRgwuIXlcrBTEd-9" value="08 操作系统内核和编程接口" style="rounded=1;whiteSpace=wrap;html=1;fillColor=#dae8fc;strokeColor=#6c8ebf;" parent="1" vertex="1">
          <mxGeometry x="295" y="726" width="305" height="29" as="geometry"/>
        </mxCell>
        <mxCell id="6KgcbaHRgwuIXlcrBTEd-10" value="09 外存管理和文件系统" style="rounded=1;whiteSpace=wrap;html=1;fillColor=#dae8fc;strokeColor=#6c8ebf;" parent="1" vertex="1">
          <mxGeometry x="295" y="690" width="305" height="30" as="geometry"/>
        </mxCell>
        <mxCell id="6KgcbaHRgwuIXlcrBTEd-11" value="10 输入和输出设备" style="rounded=1;whiteSpace=wrap;html=1;fillColor=#dae8fc;strokeColor=#6c8ebf;" parent="1" vertex="1">
          <mxGeometry x="296" y="653" width="304" height="30" as="geometry"/>
        </mxCell>
        <mxCell id="6KgcbaHRgwuIXlcrBTEd-12" value="11 多任务: 进程 线程 协程" style="rounded=1;whiteSpace=wrap;html=1;fillColor=#e1d5e7;strokeColor=#9673a6;" parent="1" vertex="1">
          <mxGeometry x="383" y="620" width="217" height="25" as="geometry"/>
        </mxCell>
        <mxCell id="6KgcbaHRgwuIXlcrBTEd-13" value="12 进程内协同：同步、互斥、通讯" style="rounded=1;whiteSpace=wrap;html=1;fillColor=#e1d5e7;strokeColor=#9673a6;" parent="1" vertex="1">
          <mxGeometry x="383" y="587.5" width="217" height="25" as="geometry"/>
        </mxCell>
        <mxCell id="6KgcbaHRgwuIXlcrBTEd-14" value="13 进程间的同步互斥、资源共享、通讯" style="rounded=1;whiteSpace=wrap;html=1;fillColor=#e1d5e7;strokeColor=#9673a6;" parent="1" vertex="1">
          <mxGeometry x="383" y="550" width="217" height="30" as="geometry"/>
        </mxCell>
        <mxCell id="6KgcbaHRgwuIXlcrBTEd-15" value="15 可编程的互联网世界" style="rounded=1;whiteSpace=wrap;html=1;fillColor=#d5e8d4;strokeColor=#82b366;" parent="1" vertex="1">
          <mxGeometry x="380" y="475" width="220" height="30" as="geometry"/>
        </mxCell>
        <mxCell id="6KgcbaHRgwuIXlcrBTEd-16" value="14网络:连接世界的桥梁" style="rounded=1;whiteSpace=wrap;html=1;arcSize=0;fillColor=#d5e8d4;strokeColor=#82b366;" parent="1" vertex="1">
          <mxGeometry x="380" y="510" width="220" height="25" as="geometry"/>
        </mxCell>
        <mxCell id="6KgcbaHRgwuIXlcrBTEd-17" value="17 架构：需求分析（上）" style="rounded=1;whiteSpace=wrap;html=1;fillColor=#b0e3e6;strokeColor=#0e8088;" parent="1" vertex="1">
          <mxGeometry x="308" y="400" width="292" height="30" as="geometry"/>
        </mxCell>
        <mxCell id="6KgcbaHRgwuIXlcrBTEd-18" value="18 架构：需求分析（下） 实战案例" style="rounded=1;whiteSpace=wrap;html=1;fillColor=#b0e3e6;strokeColor=#0e8088;" parent="1" vertex="1">
          <mxGeometry x="306" y="367" width="292" height="30" as="geometry"/>
        </mxCell>
        <mxCell id="6KgcbaHRgwuIXlcrBTEd-19" value="19 基础平台：回归和总结" style="rounded=1;whiteSpace=wrap;html=1;fillColor=#d0cee2;strokeColor=#56517e;" parent="1" vertex="1">
          <mxGeometry x="226" y="330" width="374" height="30" as="geometry"/>
        </mxCell>
        <mxCell id="6KgcbaHRgwuIXlcrBTEd-20" value="多任务" style="rounded=1;whiteSpace=wrap;html=1;fillColor=#e1d5e7;strokeColor=#9673a6;" parent="1" vertex="1">
          <mxGeometry x="296" y="550" width="74" height="90" as="geometry"/>
        </mxCell>
        <mxCell id="6KgcbaHRgwuIXlcrBTEd-21" value="网络" style="rounded=1;whiteSpace=wrap;html=1;fillColor=#d5e8d4;strokeColor=#82b366;" parent="1" vertex="1">
          <mxGeometry x="296" y="470" width="74" height="70" as="geometry"/>
        </mxCell>
        <mxCell id="6KgcbaHRgwuIXlcrBTEd-22" value="16 安全管理" style="rounded=1;whiteSpace=wrap;html=1;fillColor=#fff2cc;strokeColor=#d6b656;" parent="1" vertex="1">
          <mxGeometry x="305" y="440" width="295" height="25" as="geometry"/>
        </mxCell>
        <mxCell id="6KgcbaHRgwuIXlcrBTEd-23" value="需求分析" style="rounded=1;whiteSpace=wrap;html=1;fillColor=#b0e3e6;strokeColor=#0e8088;" parent="1" vertex="1">
          <mxGeometry x="223" y="370" width="74" height="60" as="geometry"/>
        </mxCell>
        <mxCell id="ynYYEtKkDQZEI9gL0nNr-1" value="冯罗伊曼体系架构" style="rounded=1;whiteSpace=wrap;html=1;fillColor=#d5e8d4;strokeColor=#82b366;" vertex="1" parent="1">
          <mxGeometry x="195" y="230" width="365" height="40" as="geometry"/>
        </mxCell>
        <mxCell id="ynYYEtKkDQZEI9gL0nNr-2" value="操作系统" style="rounded=1;whiteSpace=wrap;html=1;fillColor=#f8cecc;strokeColor=#b85450;" vertex="1" parent="1">
          <mxGeometry x="193" y="180" width="138" height="40" as="geometry"/>
        </mxCell>
        <mxCell id="ynYYEtKkDQZEI9gL0nNr-3" value="编程语言" style="rounded=1;whiteSpace=wrap;html=1;fillColor=#e1d5e7;strokeColor=#9673a6;" vertex="1" parent="1">
          <mxGeometry x="421" y="180" width="138" height="40" as="geometry"/>
        </mxCell>
        <mxCell id="ynYYEtKkDQZEI9gL0nNr-4" value="中间件类基础架构（Nginx、Mysql）" style="rounded=1;whiteSpace=wrap;html=1;fillColor=#ffe6cc;strokeColor=#d79b00;" vertex="1" parent="1">
          <mxGeometry x="192.5" y="130" width="365" height="40" as="geometry"/>
        </mxCell>
        <mxCell id="ynYYEtKkDQZEI9gL0nNr-5" value="应用框架和基础类框架" style="rounded=1;whiteSpace=wrap;html=1;fillColor=#dae8fc;strokeColor=#6c8ebf;" vertex="1" parent="1">
          <mxGeometry x="192.5" y="80" width="365" height="40" as="geometry"/>
        </mxCell>
        <mxCell id="ynYYEtKkDQZEI9gL0nNr-6" value="业务架构" style="rounded=1;whiteSpace=wrap;html=1;fillColor=#fff2cc;strokeColor=#d6b656;" vertex="1" parent="1">
          <mxGeometry x="192.5" y="30" width="365" height="40" as="geometry"/>
        </mxCell>
      </root>
    </mxGraphModel>
  </diagram>
</mxfile>
